<svg width="35" height="20" viewBox="0 0 35 20" fill="none" xmlns="http://www.w3.org/2000/svg">
<path d="M7.77778 0H3.88889C2.85749 0 1.86834 0.409721 1.13903 1.13903C0.409721 1.86834 0 2.85749 0 3.88889V19.4444H3.88889V11.6667H7.77778V19.4444H11.6667V3.88889C11.6667 2.85749 11.2569 1.86834 10.5276 1.13903C9.79833 0.409721 8.80918 0 7.77778 0M7.77778 7.77778H3.88889V3.88889H7.77778M21.3889 0H13.6111V19.4444H17.5V11.6667H21.3889C22.4203 11.6667 23.4094 11.2569 24.1387 10.5276C24.8681 9.79833 25.2778 8.80918 25.2778 7.77778V3.88889C25.2778 2.85749 24.8681 1.86834 24.1387 1.13903C23.4094 0.409721 22.4203 0 21.3889 0M21.3889 7.77778H17.5V3.88889H21.3889M33.0556 3.88889V15.5556H35V19.4444H27.2222V15.5556H29.1667V3.88889H27.2222V0H35V3.88889H33.0556Z" fill="#87EE63"/>
</svg>
