<svg width="12" height="7" viewBox="0 0 12 7" fill="none" xmlns="http://www.w3.org/2000/svg">
<path d="M10.875 1.67499L6.275 6.27499C6.175 6.37499 6.06667 6.44565 5.95 6.48699C5.83333 6.52899 5.70833 6.54999 5.575 6.54999C5.44167 6.54999 5.31667 6.52899 5.2 6.48699C5.08333 6.44565 4.975 6.37499 4.875 6.27499L0.275 1.67499C0.0916663 1.49165 0 1.25832 0 0.974988C0 0.691655 0.0916663 0.458322 0.275 0.274988C0.458333 0.0916548 0.691667 -1.23978e-05 0.975 -1.23978e-05C1.25833 -1.23978e-05 1.49167 0.0916548 1.675 0.274988L5.575 4.17499L9.475 0.274988C9.65833 0.0916548 9.89167 -1.23978e-05 10.175 -1.23978e-05C10.4583 -1.23978e-05 10.6917 0.0916548 10.875 0.274988C11.0583 0.458322 11.15 0.691655 11.15 0.974988C11.15 1.25832 11.0583 1.49165 10.875 1.67499Z" fill="#545454"/>
</svg>
