<svg width="30" height="30" viewBox="0 0 30 30" fill="none" xmlns="http://www.w3.org/2000/svg">
<path d="M11.25 22.5C10.5625 22.5 9.97417 22.2554 9.485 21.7663C8.995 21.2763 8.75 20.6875 8.75 20V5C8.75 4.3125 8.995 3.72375 9.485 3.23375C9.97417 2.74458 10.5625 2.5 11.25 2.5H22.5C23.1875 2.5 23.7763 2.74458 24.2663 3.23375C24.7554 3.72375 25 4.3125 25 5V20C25 20.6875 24.7554 21.2763 24.2663 21.7663C23.7763 22.2554 23.1875 22.5 22.5 22.5H11.25ZM6.25 27.5C5.5625 27.5 4.97375 27.2554 4.48375 26.7663C3.99458 26.2763 3.75 25.6875 3.75 25V8.75C3.75 8.39583 3.87 8.09875 4.11 7.85875C4.34917 7.61958 4.64583 7.5 5 7.5C5.35417 7.5 5.65125 7.61958 5.89125 7.85875C6.13042 8.09875 6.25 8.39583 6.25 8.75V25H18.75C19.1042 25 19.4013 25.12 19.6413 25.36C19.8804 25.5992 20 25.8958 20 26.25C20 26.6042 19.8804 26.9008 19.6413 27.14C19.4013 27.38 19.1042 27.5 18.75 27.5H6.25Z" fill="#545454"/>
</svg>
