<svg width="35" height="35" viewBox="0 0 35 35" fill="none" xmlns="http://www.w3.org/2000/svg">
<path d="M32.2657 14.4375V14.3281L28.1094 3.5C28 3.28125 27.8907 3.0625 27.6719 2.95313C27.2344 2.73438 26.7969 2.73438 26.3594 3.0625C26.25 3.17188 26.0313 3.28125 26.0313 3.5L23.1875 12.1406H11.8125L8.9688 3.5C8.9688 3.28125 8.75005 3.17188 8.64067 2.95313C8.20317 2.73438 7.76567 2.625 7.32817 2.95313C7.10942 3.0625 7.00005 3.17188 6.89067 3.39063L2.73442 14.2187V14.3281C1.5313 17.5 2.51567 21.2188 5.25005 23.2969L11.5938 28L14.7657 30.4063L16.625 31.8281C17.0625 32.1563 17.7188 32.1563 18.1563 31.8281L20.0157 30.4063L23.1875 28L29.5313 23.1875C32.4844 21.3281 33.5782 17.6094 32.2657 14.4375V14.4375Z" fill="#E24329"/>
<path d="M32.2656 14.4375V14.3281C30.1875 14.7656 28.3281 15.6406 26.6875 16.8437L17.5 23.7344C20.6719 26.1406 23.2969 28.1094 23.2969 28.1094L29.6406 23.2969C32.4844 21.3281 33.5781 17.6094 32.2656 14.4375V14.4375Z" fill="#FC6D26"/>
<path d="M11.7031 28.2188L14.875 30.625L16.7344 32.0469C17.1719 32.375 17.8281 32.375 18.2656 32.0469L20.125 30.625L23.2969 28.2188C23.2969 28.2188 20.5625 26.1406 17.5 23.8438C14.3281 26.1406 11.7031 28.2188 11.7031 28.2188V28.2188Z" fill="#FCA326"/>
<path d="M8.31255 16.8437C6.67192 15.6406 4.70317 14.7656 2.73442 14.3281V14.4375C1.5313 17.6094 2.51567 21.3281 5.25005 23.4062L11.5938 28.1094C11.5938 28.1094 14.3282 26.0313 17.3907 23.7344L8.31255 16.8437V16.8437Z" fill="#FC6D26"/>
</svg>
