<svg width="26" height="27" viewBox="0 0 26 27" fill="none" xmlns="http://www.w3.org/2000/svg">
<path d="M6.63606 17.7426L2.39341 13.5C0.926168 12.0327 0.192899 10.265 0.193605 8.19669C0.192899 6.1284 0.926168 4.36064 2.39341 2.89339C3.86066 1.42614 5.62878 0.692519 7.69778 0.692519C9.76536 0.692519 11.5328 1.42614 13 2.89339L17.2427 7.13603L15.1213 9.25735L10.8787 5.01471C9.99481 4.13083 8.93415 3.68888 7.69672 3.68888C6.45928 3.68888 5.39862 4.13083 4.51474 5.01471C3.63085 5.89859 3.18891 6.95925 3.18891 8.19669C3.18891 9.43413 3.63085 10.4948 4.51474 11.3787L8.75738 15.6213L6.63606 17.7426ZM7.69672 10.318L9.81804 8.19669L18.3033 16.682L16.182 18.8033L7.69672 10.318ZM8.75738 19.864L10.8787 17.7426L15.1213 21.9853C16.0052 22.8692 17.0659 23.3111 18.3033 23.3111C19.5408 23.3111 20.6014 22.8692 21.4853 21.9853C22.3692 21.1014 22.8111 20.0407 22.8111 18.8033C22.8111 17.5659 22.3692 16.5052 21.4853 15.6213L17.2427 11.3787L19.364 9.25735L23.6066 13.5C25.0739 14.9672 25.8078 16.735 25.8086 18.8033C25.8078 20.8716 25.0739 22.6393 23.6066 24.1066C22.1394 25.5738 20.372 26.3075 18.3044 26.3075C16.2354 26.3075 14.4673 25.5738 13 24.1066L8.75738 19.864Z" fill="#545454"/>
</svg>
