<svg width="50" height="50" viewBox="0 0 50 50" fill="none" xmlns="http://www.w3.org/2000/svg">
<path d="M5.55556 22.2222H16.6667C19.7222 22.2222 22.2222 19.7222 22.2222 16.6667V5.55556C22.2222 2.5 19.7222 0 16.6667 0H5.55556C2.5 0 0 2.5 0 5.55556V16.6667C0 19.7222 2.5 22.2222 5.55556 22.2222ZM5.55556 5.55556H16.6667V16.6667H5.55556V5.55556ZM5.55556 50H16.6667C19.7222 50 22.2222 47.5 22.2222 44.4444V33.3333C22.2222 30.2778 19.7222 27.7778 16.6667 27.7778H5.55556C2.5 27.7778 0 30.2778 0 33.3333V44.4444C0 47.5 2.5 50 5.55556 50ZM5.55556 33.3333H16.6667V44.4444H5.55556V33.3333ZM27.7778 5.55556V16.6667C27.7778 19.7222 30.2778 22.2222 33.3333 22.2222H44.4444C47.5 22.2222 50 19.7222 50 16.6667V5.55556C50 2.5 47.5 0 44.4444 0H33.3333C30.2778 0 27.7778 2.5 27.7778 5.55556ZM44.4444 16.6667H33.3333V5.55556H44.4444V16.6667ZM50 48.6111V45.8333C50 45.0556 49.3889 44.4444 48.6111 44.4444H45.8333C45.0556 44.4444 44.4444 45.0556 44.4444 45.8333V48.6111C44.4444 49.3889 45.0556 50 45.8333 50H48.6111C49.3889 50 50 49.3889 50 48.6111ZM27.7778 29.1667V31.9444C27.7778 32.7222 28.3889 33.3333 29.1667 33.3333H31.9444C32.7222 33.3333 33.3333 32.7222 33.3333 31.9444V29.1667C33.3333 28.3889 32.7222 27.7778 31.9444 27.7778H29.1667C28.3889 27.7778 27.7778 28.3889 27.7778 29.1667ZM37.5 33.3333H34.7222C33.9444 33.3333 33.3333 33.9444 33.3333 34.7222V37.5C33.3333 38.2778 33.9444 38.8889 34.7222 38.8889H37.5C38.2778 38.8889 38.8889 38.2778 38.8889 37.5V34.7222C38.8889 33.9444 38.2778 33.3333 37.5 33.3333ZM27.7778 40.2778V43.0556C27.7778 43.8333 28.3889 44.4444 29.1667 44.4444H31.9444C32.7222 44.4444 33.3333 43.8333 33.3333 43.0556V40.2778C33.3333 39.5 32.7222 38.8889 31.9444 38.8889H29.1667C28.3889 38.8889 27.7778 39.5 27.7778 40.2778ZM34.7222 50H37.5C38.2778 50 38.8889 49.3889 38.8889 48.6111V45.8333C38.8889 45.0556 38.2778 44.4444 37.5 44.4444H34.7222C33.9444 44.4444 33.3333 45.0556 33.3333 45.8333V48.6111C33.3333 49.3889 33.9444 50 34.7222 50ZM40.2778 44.4444H43.0556C43.8333 44.4444 44.4444 43.8333 44.4444 43.0556V40.2778C44.4444 39.5 43.8333 38.8889 43.0556 38.8889H40.2778C39.5 38.8889 38.8889 39.5 38.8889 40.2778V43.0556C38.8889 43.8333 39.5 44.4444 40.2778 44.4444ZM43.0556 27.7778H40.2778C39.5 27.7778 38.8889 28.3889 38.8889 29.1667V31.9444C38.8889 32.7222 39.5 33.3333 40.2778 33.3333H43.0556C43.8333 33.3333 44.4444 32.7222 44.4444 31.9444V29.1667C44.4444 28.3889 43.8333 27.7778 43.0556 27.7778ZM45.8333 38.8889H48.6111C49.3889 38.8889 50 38.2778 50 37.5V34.7222C50 33.9444 49.3889 33.3333 48.6111 33.3333H45.8333C45.0556 33.3333 44.4444 33.9444 44.4444 34.7222V37.5C44.4444 38.2778 45.0556 38.8889 45.8333 38.8889Z" fill="#87EE63"/>
</svg>
