<svg width="34" height="17" viewBox="0 0 34 17" fill="none" xmlns="http://www.w3.org/2000/svg">
<path d="M32 2H28.6667C27.7826 2 26.9348 2.35119 26.3096 2.97631C25.6845 3.60143 25.3333 4.44928 25.3333 5.33333V12C25.3333 12.8841 25.6845 13.7319 26.3096 14.357C26.9348 14.9821 27.7826 15.3333 28.6667 15.3333H32V8.66667H30.3333M2 15.3333V2H5.33333C6.21739 2 7.06523 2.35119 7.69036 2.97631C8.31548 3.60143 8.66667 4.44928 8.66667 5.33333C8.66667 6.21739 8.31548 7.06523 7.69036 7.69036C7.06523 8.31548 6.21739 8.66667 5.33333 8.66667H2M13.6667 15.3333V2L20.3333 15.3333V2" stroke="#545454" stroke-width="3" stroke-linecap="round" stroke-linejoin="round"/>
</svg>
