<svg width="24" height="24" viewBox="0 0 24 24" fill="none" xmlns="http://www.w3.org/2000/svg">
    <g clip-path="url(#clip0_70_8)">
        <path d="M8.89951 1.305C9.30327 0.89181 9.78554 0.56349 10.318 0.339334C10.8504 0.115177 11.4223 -0.000293732 12 -0.000293732C12.5777 -0.000293732 13.1496 0.115177 13.682 0.339334C14.2145 0.56349 14.6968 0.89181 15.1005 1.305L16.0335 2.262L17.3685 2.2455C17.9464 2.23866 18.5198 2.34744 19.055 2.56543C19.5902 2.78343 20.0765 3.10624 20.4851 3.51489C20.8938 3.92354 21.2166 4.40977 21.4346 4.94499C21.6526 5.48022 21.7614 6.05362 21.7545 6.6315L21.7395 7.9665L22.6935 8.8995C23.1067 9.30325 23.435 9.78553 23.6592 10.318C23.8833 10.8504 23.9988 11.4223 23.9988 12C23.9988 12.5777 23.8833 13.1496 23.6592 13.682C23.435 14.2145 23.1067 14.6967 22.6935 15.1005L21.738 16.0335L21.7545 17.3685C21.7614 17.9464 21.6526 18.5198 21.4346 19.055C21.2166 19.5902 20.8938 20.0765 20.4851 20.4851C20.0765 20.8938 19.5902 21.2166 19.055 21.4346C18.5198 21.6526 17.9464 21.7613 17.3685 21.7545L16.0335 21.7395L15.1005 22.6935C14.6968 23.1067 14.2145 23.435 13.682 23.6592C13.1496 23.8833 12.5777 23.9988 12 23.9988C11.4223 23.9988 10.8504 23.8833 10.318 23.6592C9.78554 23.435 9.30327 23.1067 8.89951 22.6935L7.96651 21.738L6.63151 21.7545C6.05364 21.7613 5.48023 21.6526 4.94501 21.4346C4.40978 21.2166 3.92355 20.8938 3.5149 20.4851C3.10625 20.0765 2.78344 19.5902 2.56545 19.055C2.34745 18.5198 2.23867 17.9464 2.24551 17.3685L2.26051 16.0335L1.30651 15.1005C0.893324 14.6967 0.565004 14.2145 0.340848 13.682C0.116692 13.1496 0.0012207 12.5777 0.0012207 12C0.0012207 11.4223 0.116692 10.8504 0.340848 10.318C0.565004 9.78553 0.893324 9.30325 1.30651 8.8995L2.26201 7.9665L2.24551 6.6315C2.23867 6.05362 2.34745 5.48022 2.56545 4.94499C2.78344 4.40977 3.10625 3.92354 3.5149 3.51489C3.92355 3.10624 4.40978 2.78343 4.94501 2.56543C5.48023 2.34744 6.05364 2.23866 6.63151 2.2455L7.96651 2.2605L8.89951 1.3065V1.305ZM10.503 16.5C10.503 16.697 10.5418 16.892 10.6172 17.074C10.6926 17.256 10.8031 17.4214 10.9424 17.5607C11.0816 17.6999 11.247 17.8104 11.429 17.8858C11.611 17.9612 11.806 18 12.003 18C12.2 18 12.3951 17.9612 12.577 17.8858C12.759 17.8104 12.9244 17.6999 13.0637 17.5607C13.203 17.4214 13.3135 17.256 13.3888 17.074C13.4642 16.892 13.503 16.697 13.503 16.5C13.503 16.1022 13.345 15.7206 13.0637 15.4393C12.7824 15.158 12.4008 15 12.003 15C11.6052 15 11.2237 15.158 10.9424 15.4393C10.661 15.7206 10.503 16.1022 10.503 16.5V16.5ZM12.906 13.4595C12.966 12.6585 13.203 12.237 14.175 11.5695C15.186 10.857 15.75 9.9345 15.75 8.5905C15.75 6.603 14.37 5.25 12.357 5.25C10.827 5.25 9.66901 5.988 9.20701 7.185C9.06701 7.51192 8.99652 7.86438 9.00001 8.22C9.00001 8.8095 9.30451 9.18 9.81751 9.18C10.2255 9.18 10.5 8.9595 10.6635 8.415C10.9005 7.527 11.451 7.0425 12.2745 7.0425C13.1895 7.0425 13.8195 7.7115 13.8195 8.6685C13.8195 9.513 13.5075 9.996 12.5865 10.656C11.658 11.3055 11.1975 12.027 11.1975 13.116V13.2825C11.1975 13.9245 11.5095 14.4 12.075 14.4C12.579 14.4 12.831 14.04 12.906 13.4595V13.4595Z"
              fill="#545454"/>
    </g>
    <defs>
        <clipPath id="clip0_70_8">
            <rect width="24" height="24" fill="white"/>
        </clipPath>
    </defs>
</svg>
